<svg viewBox="0 0 23 23" fill="none" xmlns="http://www.w3.org/2000/svg"><path d="M21.5625 2.15399L15.8075 2.15401V0.721542C15.8075 0.324433 15.4858 0.00279236 15.0887 0.00279236C14.6916 0.00279236 14.37 0.324433 14.37 0.721542V2.15365H8.61997V0.721542C8.61997 0.324433 8.29833 0.00279236 7.90122 0.00279236C7.50411 0.00279236 7.18247 0.324433 7.18247 0.721542V2.15365H1.4375C0.643641 2.15365 0 2.79729 0 3.59115V21.5599C0 22.3537 0.643641 22.9974 1.4375 22.9974H21.5625C22.3564 22.9974 23 22.3537 23 21.5599V3.59115C23 2.79763 22.3564 2.15399 21.5625 2.15399ZM21.5625 21.5599H1.4375V3.59115H7.18247V4.31529C7.18247 4.71238 7.50411 5.03404 7.90122 5.03404C8.29833 5.03404 8.61997 4.71238 8.61997 4.31529V3.59151H14.37V4.31565C14.37 4.71276 14.6916 5.0344 15.0887 5.0344C15.4858 5.0344 15.8075 4.71276 15.8075 4.31565V3.59151H21.5625V21.5599ZM16.5312 11.4977H17.9688C18.3655 11.4977 18.6875 11.1757 18.6875 10.779V9.34149C18.6875 8.94474 18.3655 8.62274 17.9688 8.62274H16.5312C16.1345 8.62274 15.8125 8.94474 15.8125 9.34149V10.779C15.8125 11.1757 16.1345 11.4977 16.5312 11.4977ZM16.5312 17.2474H17.9688C18.3655 17.2474 18.6875 16.9257 18.6875 16.5286V15.0911C18.6875 14.6944 18.3655 14.3724 17.9688 14.3724H16.5312C16.1345 14.3724 15.8125 14.6944 15.8125 15.0911V16.5286C15.8125 16.9261 16.1345 17.2474 16.5312 17.2474ZM12.2188 14.3724H10.7812C10.3845 14.3724 10.0625 14.6944 10.0625 15.0911V16.5286C10.0625 16.9257 10.3845 17.2474 10.7812 17.2474H12.2188C12.6155 17.2474 12.9375 16.9257 12.9375 16.5286V15.0911C12.9375 14.6947 12.6155 14.3724 12.2188 14.3724ZM12.2188 8.62274H10.7812C10.3845 8.62274 10.0625 8.94474 10.0625 9.34149V10.779C10.0625 11.1757 10.3845 11.4977 10.7812 11.4977H12.2188C12.6155 11.4977 12.9375 11.1757 12.9375 10.779V9.34149C12.9375 8.94438 12.6155 8.62274 12.2188 8.62274ZM6.46875 8.62274H5.03125C4.6345 8.62274 4.3125 8.94474 4.3125 9.34149V10.779C4.3125 11.1757 4.6345 11.4977 5.03125 11.4977H6.46875C6.8655 11.4977 7.1875 11.1757 7.1875 10.779V9.34149C7.1875 8.94438 6.8655 8.62274 6.46875 8.62274ZM6.46875 14.3724H5.03125C4.6345 14.3724 4.3125 14.6944 4.3125 15.0911V16.5286C4.3125 16.9257 4.6345 17.2474 5.03125 17.2474H6.46875C6.8655 17.2474 7.1875 16.9257 7.1875 16.5286V15.0911C7.1875 14.6947 6.8655 14.3724 6.46875 14.3724Z" fill="white"/></svg>