<svg viewBox="0 0 70 54" fill="none" xmlns="http://www.w3.org/2000/svg"><path d="M51.575 51.05H27.3495C21.0815 51.1414 15.0198 48.8119 10.4262 44.5464C5.83254 40.2809 3.06099 34.4081 2.68849 28.1505C2.53273 24.8984 3.03893 21.6485 4.1764 18.5978C5.31386 15.5472 7.05892 12.7592 9.30579 10.4029C11.5527 8.04666 14.2546 6.17114 17.2478 4.89004C20.241 3.60893 23.4631 2.94893 26.719 2.95001C31.9859 2.96953 37.1022 4.70962 41.2889 7.90536C45.4755 11.1011 48.5032 15.5774 49.911 20.6528C52.3405 20.316 54.8154 20.5655 57.1289 21.3802C59.4425 22.1949 61.5275 23.5512 63.21 25.336C64.6485 26.8607 65.7551 28.6672 66.46 30.6413C67.1648 32.6154 67.4525 34.7143 67.305 36.8053C66.9715 40.7291 65.1631 44.3807 62.2441 47.0241C59.3251 49.6675 55.5126 51.1061 51.575 51.05ZM5.93523 28.0043C6.27078 33.4258 8.68402 38.5091 12.6727 42.1963C16.6614 45.8836 21.9183 47.8907 27.3495 47.8H51.575C54.6886 47.8549 57.7072 46.7274 60.0225 44.6449C62.3377 42.5624 63.7776 39.6797 64.0517 36.5778C64.1778 34.7112 63.8667 32.841 63.143 31.1158C62.4194 29.3906 61.3032 27.8581 59.8832 26.64C58.4632 25.422 56.7786 24.5521 54.9634 24.0995C53.1481 23.6468 51.2523 23.624 49.4267 24.0328L48.7767 24.1823L47.9025 23.7695C47.6773 23.6268 47.4829 23.4406 47.3306 23.2219C47.1782 23.0031 47.071 22.7562 47.0152 22.4955C45.9785 17.8818 43.4058 13.7569 39.7184 10.7964C36.0311 7.83591 31.4477 6.2153 26.719 6.20001C23.9017 6.19889 21.1135 6.7701 18.5236 7.87901C15.9337 8.98792 13.5961 10.6114 11.6526 12.651C9.70906 14.6906 8.20012 17.1037 7.21732 19.744C6.23451 22.3843 5.79833 25.1968 5.93523 28.0108V28.0043Z" fill="#FF7A00" stroke="#FF7A00" stroke-width="5"/></svg>