<svg viewBox="0 0 50 50" fill="none" xmlns="http://www.w3.org/2000/svg"><path d="M25 0C26.7285 0 28.125 1.39648 28.125 3.125V6.51367C35.9766 7.82227 42.1777 14.0234 43.4863 21.875H46.875C48.6035 21.875 50 23.2715 50 25C50 26.7285 48.6035 28.125 46.875 28.125H43.4863C42.1777 35.9766 35.9766 42.1777 28.125 43.4863V46.875C28.125 48.6035 26.7285 50 25 50C23.2715 50 21.875 48.6035 21.875 46.875V43.4863C14.0234 42.1777 7.82227 35.9766 6.51367 28.125H3.125C1.39648 28.125 0 26.7285 0 25C0 23.2715 1.39648 21.875 3.125 21.875H6.51367C7.82227 14.0234 14.0234 7.82227 21.875 6.51367V3.125C21.875 1.39648 23.2715 0 25 0ZM12.5 25C12.5 28.3152 13.817 31.4946 16.1612 33.8388C18.5054 36.183 21.6848 37.5 25 37.5C28.3152 37.5 31.4946 36.183 33.8388 33.8388C36.183 31.4946 37.5 28.3152 37.5 25C37.5 21.6848 36.183 18.5054 33.8388 16.1612C31.4946 13.817 28.3152 12.5 25 12.5C21.6848 12.5 18.5054 13.817 16.1612 16.1612C13.817 18.5054 12.5 21.6848 12.5 25ZM25 17.1875C27.072 17.1875 29.0591 18.0106 30.5243 19.4757C31.9894 20.9409 32.8125 22.928 32.8125 25C32.8125 27.072 31.9894 29.0591 30.5243 30.5243C29.0591 31.9894 27.072 32.8125 25 32.8125C22.928 32.8125 20.9409 31.9894 19.4757 30.5243C18.0106 29.0591 17.1875 27.072 17.1875 25C17.1875 22.928 18.0106 20.9409 19.4757 19.4757C20.9409 18.0106 22.928 17.1875 25 17.1875Z" fill="white"/></svg>