<svg viewBox="0 0 35 31" fill="none" xmlns="http://www.w3.org/2000/svg"><path d="M27.3438 2.375C25.8933 2.375 24.5023 2.95117 23.4768 3.97676C22.4512 5.00235 21.875 6.39335 21.875 7.84375C21.875 8.13383 21.7598 8.41203 21.5546 8.61715C21.3495 8.82227 21.0713 8.9375 20.7812 8.9375C20.4912 8.9375 20.213 8.82227 20.0079 8.61715C19.8027 8.41203 19.6875 8.13383 19.6875 7.84375C19.6875 6.32949 20.1365 4.84923 20.9778 3.59017C21.8191 2.3311 23.0148 1.34978 24.4138 0.770301C25.8128 0.190817 27.3522 0.0391981 28.8374 0.334616C30.3226 0.630034 31.6868 1.35922 32.7575 2.42997C33.8283 3.50071 34.5575 4.86493 34.8529 6.35009C35.1483 7.83526 34.9967 9.37468 34.4172 10.7737C33.8377 12.1727 32.8564 13.3684 31.5973 14.2097C30.3383 15.051 28.858 15.5 27.3438 15.5H1.09375C0.803669 15.5 0.52547 15.3848 0.320352 15.1796C0.115234 14.9745 0 14.6963 0 14.4063C0 14.1162 0.115234 13.838 0.320352 13.6329C0.52547 13.4277 0.803669 13.3125 1.09375 13.3125H27.3438C28.7942 13.3125 30.1852 12.7363 31.2107 11.7107C32.2363 10.6852 32.8125 9.29416 32.8125 7.84375C32.8125 6.39335 32.2363 5.00235 31.2107 3.97676C30.1852 2.95117 28.7942 2.375 27.3438 2.375ZM12.0312 4.5625C11.4511 4.5625 10.8947 4.79297 10.4845 5.20321C10.0742 5.61344 9.84375 6.16984 9.84375 6.75C9.84375 7.04008 9.72852 7.31828 9.5234 7.5234C9.31828 7.72852 9.04008 7.84375 8.75 7.84375C8.45992 7.84375 8.18172 7.72852 7.9766 7.5234C7.77148 7.31828 7.65625 7.04008 7.65625 6.75C7.65625 5.88471 7.91284 5.03885 8.39357 4.31938C8.8743 3.59992 9.55758 3.03916 10.357 2.70803C11.1564 2.3769 12.0361 2.29026 12.8848 2.45907C13.7334 2.62788 14.513 3.04456 15.1248 3.65641C15.7367 4.26827 16.1534 5.04782 16.3222 5.89648C16.491 6.74515 16.4044 7.62482 16.0732 8.42424C15.7421 9.22367 15.1813 9.90695 14.4619 10.3877C13.7424 10.8684 12.8965 11.125 12.0312 11.125H1.09375C0.803669 11.125 0.52547 11.0098 0.320352 10.8046C0.115234 10.5995 0 10.3213 0 10.0313C0 9.74117 0.115234 9.46297 0.320352 9.25785C0.52547 9.05274 0.803669 8.9375 1.09375 8.9375H12.0312C12.6114 8.9375 13.1678 8.70703 13.578 8.2968C13.9883 7.88656 14.2188 7.33016 14.2188 6.75C14.2188 6.16984 13.9883 5.61344 13.578 5.20321C13.1678 4.79297 12.6114 4.5625 12.0312 4.5625ZM0 18.7813C0 18.4912 0.115234 18.213 0.320352 18.0079C0.52547 17.8027 0.803669 17.6875 1.09375 17.6875H23.0606C24.3586 17.6875 25.6274 18.0724 26.7066 18.7935C27.7858 19.5146 28.6269 20.5395 29.1236 21.7386C29.6203 22.9378 29.7502 24.2573 29.497 25.5303C29.2438 26.8033 28.6188 27.9726 27.701 28.8904C26.7832 29.8082 25.6139 30.4332 24.3409 30.6864C23.0679 30.9396 21.7484 30.8097 20.5493 30.313C19.3501 29.8163 18.3252 28.9751 17.6041 27.8959C16.883 26.8167 16.4981 25.5479 16.4981 24.25C16.4981 23.9599 16.6134 23.6817 16.8185 23.4766C17.0236 23.2715 17.3018 23.1563 17.5919 23.1563C17.882 23.1563 18.1602 23.2715 18.3653 23.4766C18.5704 23.6817 18.6856 23.9599 18.6856 24.25C18.6856 25.1153 18.9422 25.9612 19.4229 26.6806C19.9037 27.4001 20.587 27.9608 21.3864 28.292C22.1858 28.6231 23.0655 28.7097 23.9141 28.5409C24.7628 28.3721 25.5424 27.9554 26.1542 27.3436C26.7661 26.7317 27.1828 25.9522 27.3516 25.1035C27.5204 24.2549 27.4337 23.3752 27.1026 22.5758C26.7715 21.7763 26.2107 21.0931 25.4912 20.6123C24.7718 20.1316 23.9259 19.875 23.0606 19.875H1.09375C0.803669 19.875 0.52547 19.7598 0.320352 19.5547C0.115234 19.3495 0 19.0713 0 18.7813Z" fill="white"/></svg>    