<svg viewBox="0 0 46 46" fill="none" xmlns="http://www.w3.org/2000/svg"><path d="M46 18C46 27.9411 37.9411 36 28 36C18.0589 36 10 27.9411 10 18C10 8.05887 18.0589 0 28 0C37.9411 0 46 8.05887 46 18Z" fill="white"/><path d="M41 18C41 25.1797 35.1797 31 28 31C20.8203 31 15 25.1797 15 18C15 10.8203 20.8203 5 28 5C35.1797 5 41 10.8203 41 18Z" fill="#D9D9D9"/><path d="M11.3069 28.795C13.1423 26.9596 16.1182 26.9596 17.9537 28.7951C19.7891 30.6305 19.7891 33.6064 17.9537 35.4419L8.97018 44.4253C7.13472 46.2608 4.15884 46.2608 2.32338 44.4253C0.487912 42.5899 0.487911 39.614 2.32337 37.7785L11.3069 28.795Z" fill="white"/></svg>