<svg viewBox="0 0 30 30" fill="none" xmlns="http://www.w3.org/2000/svg"><path d="M22.0136 1.15418C21.9257 0.685432 21.6093 0.292854 21.1699 0.111213C20.7304 -0.0704272 20.2265 -0.0176928 19.8339 0.251838L14.9999 3.57996L10.166 0.245979C9.77337 -0.0235522 9.26947 -0.0762865 8.83001 0.105354C8.39056 0.286995 8.07415 0.679573 7.98626 1.14832L6.92572 6.91981L1.15423 7.98621C0.685482 8.0741 0.292904 8.39051 0.111263 8.82996C-0.0703776 9.26942 -0.0176432 9.77332 0.251888 10.1659L3.58001 14.9999L0.246029 19.8339C-0.0235026 20.2264 -0.076237 20.7304 0.105404 21.1698C0.287044 21.6093 0.679622 21.9315 1.14837 22.0136L6.91986 23.0741L7.9804 28.8456C8.06829 29.3143 8.3847 29.7069 8.82415 29.8886C9.26361 30.0702 9.76751 30.0175 10.1601 29.7479L14.9999 26.4198L19.8339 29.7538C20.2265 30.0233 20.7304 30.0761 21.1699 29.8944C21.6093 29.7128 21.9257 29.3202 22.0136 28.8514L23.0742 23.08L28.8456 22.0194C29.3144 21.9315 29.707 21.6151 29.8886 21.1757C30.0702 20.7362 30.0175 20.2323 29.748 19.8397L26.4199 14.9999L29.7538 10.1659C30.0234 9.77332 30.0761 9.26942 29.8945 8.82996C29.7128 8.39051 29.3202 8.0741 28.8515 7.98621L23.08 6.92567L22.0136 1.15418ZM15.7968 6.4452L19.6406 3.79676L20.4843 8.38465C20.5898 8.95887 21.0409 9.41004 21.6152 9.51551L26.2031 10.3593L23.5546 14.203C23.2206 14.6835 23.2206 15.3163 23.5546 15.7968L26.2031 19.6405L21.6152 20.4843C21.0409 20.5897 20.5898 21.0409 20.4843 21.6151L19.6406 26.203L15.7968 23.5546C15.3163 23.2206 14.6835 23.2206 14.2031 23.5546L10.3593 26.203L9.51556 21.6151C9.41009 21.0409 8.95892 20.5897 8.3847 20.4843L3.79681 19.6405L6.44525 15.7968C6.77923 15.3163 6.77923 14.6835 6.44525 14.203L3.79681 10.3593L8.3847 9.51551C8.95892 9.41004 9.41009 8.95887 9.51556 8.38465L10.3593 3.79676L14.2031 6.4452C14.6835 6.77918 15.3163 6.77918 15.7968 6.4452ZM14.9999 21.5624C16.7404 21.5624 18.4096 20.871 19.6403 19.6403C20.871 18.4096 21.5624 16.7404 21.5624 14.9999C21.5624 13.2594 20.871 11.5902 19.6403 10.3595C18.4096 9.12879 16.7404 8.43739 14.9999 8.43739C13.2595 8.43739 11.5903 9.12879 10.3595 10.3595C9.12884 11.5902 8.43744 13.2594 8.43744 14.9999C8.43744 16.7404 9.12884 18.4096 10.3595 19.6403C11.5903 20.871 13.2595 21.5624 14.9999 21.5624ZM11.2499 14.9999C11.2499 14.0053 11.645 13.0515 12.3483 12.3482C13.0515 11.645 14.0054 11.2499 14.9999 11.2499C15.9945 11.2499 16.9483 11.645 17.6516 12.3482C18.3548 13.0515 18.7499 14.0053 18.7499 14.9999C18.7499 15.9944 18.3548 16.9483 17.6516 17.6515C16.9483 18.3548 15.9945 18.7499 14.9999 18.7499C14.0054 18.7499 13.0515 18.3548 12.3483 17.6515C11.645 16.9483 11.2499 15.9944 11.2499 14.9999Z" fill="white"/></svg>    