<svg viewBox="0 0 20 28" fill="none" xmlns="http://www.w3.org/2000/svg"><path d="M19.375 14C19.3749 12.6485 19.0821 11.3131 18.5167 10.0855C17.9513 8.85798 17.1267 7.76749 16.0996 6.88906L15.2734 2.33164C15.1754 1.7914 14.8909 1.30271 14.4694 0.950831C14.0479 0.598952 13.5162 0.406217 12.9672 0.40625H7.0328C6.48374 0.406217 5.9521 0.598952 5.53061 0.950831C5.10913 1.30271 4.82456 1.7914 4.72655 2.33164L3.90624 6.88906C2.87905 7.76742 2.05435 8.85789 1.48889 10.0854C0.923422 11.313 0.630615 12.6485 0.630615 14C0.630615 15.3515 0.923422 16.687 1.48889 17.9146C2.05435 19.1421 2.87905 20.2326 3.90624 21.1109L4.72655 25.6684C4.82456 26.2086 5.10913 26.6973 5.53061 27.0492C5.9521 27.401 6.48374 27.5938 7.0328 27.5938H12.9672C13.5162 27.5938 14.0479 27.401 14.4694 27.0492C14.8909 26.6973 15.1754 26.2086 15.2734 25.6684L16.0996 21.1109C17.1267 20.2325 17.9513 19.142 18.5167 17.9145C19.0821 16.6869 19.3749 15.3515 19.375 14ZM7.42187 3.21875H12.5781L12.918 5.09375C11.0239 4.47191 8.98073 4.47191 7.08671 5.09375L7.42187 3.21875ZM12.5781 24.7812H7.42187L7.08202 22.9062C8.97604 23.5281 11.0193 23.5281 12.9133 22.9062L12.5781 24.7812ZM9.99999 20.5625C8.70205 20.5625 7.43326 20.1776 6.35406 19.4565C5.27486 18.7354 4.43373 17.7105 3.93703 16.5114C3.44033 15.3122 3.31037 13.9927 3.56359 12.7197C3.8168 11.4467 4.44182 10.2774 5.3596 9.35961C6.27739 8.44183 7.44671 7.81681 8.71971 7.5636C9.99271 7.31038 11.3122 7.44034 12.5114 7.93704C13.7105 8.43374 14.7354 9.27487 15.4565 10.3541C16.1776 11.4333 16.5625 12.7021 16.5625 14C16.5606 15.7399 15.8686 17.408 14.6383 18.6383C13.408 19.8686 11.7399 20.5606 9.99999 20.5625ZM14.6875 14C14.6875 14.373 14.5393 14.7306 14.2756 14.9944C14.0119 15.2581 13.6542 15.4062 13.2812 15.4062H9.99999C9.62703 15.4062 9.26935 15.2581 9.00562 14.9944C8.7419 14.7306 8.59374 14.373 8.59374 14V10.7188C8.59374 10.3458 8.7419 9.9881 9.00562 9.72438C9.26935 9.46066 9.62703 9.3125 9.99999 9.3125C10.373 9.3125 10.7306 9.46066 10.9944 9.72438C11.2581 9.9881 11.4062 10.3458 11.4062 10.7188V12.5938H13.2812C13.6542 12.5938 14.0119 12.7419 14.2756 13.0056C14.5393 13.2694 14.6875 13.627 14.6875 14Z" fill="white"/></svg>