<svg viewBox="0 0 105 67" fill="none" xmlns="http://www.w3.org/2000/svg"><path d="M87.9703 27.1147C86.6075 20.2448 83.0827 13.9911 77.9113 9.26782C72.7399 4.54459 66.1931 1.59959 59.2282 0.863428C52.2632 0.127265 45.2454 1.63855 39.2009 5.17631C33.1563 8.71407 28.402 14.0928 25.6331 20.5259C22.528 20.1682 19.3825 20.448 16.3893 21.3483C13.3961 22.2485 10.6181 23.7502 8.22543 25.7613C5.83275 27.7725 3.87574 30.2509 2.47421 33.0447C1.07269 35.8386 0.256137 38.8891 0.0745582 42.0095C-0.107021 45.1298 0.350192 48.2545 1.4182 51.192C2.48622 54.1295 4.14255 56.8182 6.2858 59.0933C8.42905 61.3685 11.0141 63.1822 13.8827 64.4235C16.7513 65.6649 19.8431 66.3076 22.9688 66.3125H85.3125C90.3073 66.3182 95.1175 64.4252 98.7688 61.017C102.42 57.6088 104.64 52.9402 104.977 47.9569C105.315 42.9735 103.746 38.048 100.589 34.1781C97.4308 30.3082 92.9202 27.7833 87.9703 27.1147Z" fill="white"/></svg>