<svg viewBox="0 0 78 72" fill="none" xmlns="http://www.w3.org/2000/svg"><path d="M25.2242 44.5262C25.2634 43.3768 24.481 42.1072 23.3402 41.6775L3.15865 34.3304C2.02127 33.9062 2.06894 33.3709 3.29095 33.1237L62.3847 18.8691C63.4618 18.5828 63.8833 19.0707 63.1132 20.0512L24.8906 68.1483C24.2047 69.0693 23.5636 68.8377 23.7532 67.7241L25.2242 44.5262Z" fill="#1C78CE"/><path d="M22.4117 69.4192C22.1318 68.965 22.0324 68.3994 22.0597 67.635L23.6865 44.4695C23.6985 44.0845 23.2533 43.3621 22.904 43.1998L2.67058 35.7563C1.09093 35.2271 0.455463 33.9876 0.937009 32.9433C1.25622 32.2482 1.8392 31.7606 2.91084 31.4777L61.9991 17.2264C63.7833 16.8744 64.5811 17.7646 64.8037 18.1258C65.0263 18.487 65.4629 19.5999 64.3465 21.0354L26.1239 69.1325C25.4771 69.9087 24.7493 70.3573 23.9815 70.3245C23.3565 70.3397 22.749 69.9665 22.4117 69.4192ZM26.2013 42.0437C26.7038 42.8592 26.8788 43.7557 26.9088 44.6131L25.5404 64.7424L60.3241 21.0149L6.75958 33.8631L24.0198 40.1335C24.8653 40.4884 25.6414 41.1352 26.2013 42.0437Z" fill="#1C78CE"/></svg>
    