<svg viewBox="0 0 19 33" fill="none" xmlns="http://www.w3.org/2000/svg"><path d="M9.5 4.125C7.79199 4.125 6.40625 5.51074 6.40625 7.21875V17.8213C6.40625 18.9363 5.94863 19.8773 5.42012 20.5605C4.74336 21.4371 4.34375 22.5264 4.34375 23.7188C4.34375 26.5676 6.65117 28.875 9.5 28.875C12.3488 28.875 14.6562 26.5676 14.6562 23.7188C14.6562 22.5264 14.2566 21.4371 13.5799 20.567C13.0514 19.8838 12.5938 18.9428 12.5938 17.8277V7.21875C12.5938 5.51074 11.208 4.125 9.5 4.125ZM2.28125 7.21875C2.28125 3.23555 5.51035 0 9.5 0C13.4896 0 16.7188 3.2291 16.7188 7.21875V17.8213C16.7188 17.8277 16.7252 17.8406 16.7316 17.86C16.7445 17.8986 16.7832 17.9631 16.8412 18.0404C18.0594 19.6131 18.7812 21.5854 18.7812 23.7188C18.7812 28.8428 14.624 33 9.5 33C4.37598 33 0.21875 28.8428 0.21875 23.7188C0.21875 21.5789 0.940625 19.6066 2.15879 18.0404C2.2168 17.9631 2.25547 17.8986 2.26836 17.86C2.2748 17.8406 2.28125 17.8277 2.28125 17.8213V7.21875ZM12.5938 23.7188C12.5938 25.4268 11.208 26.8125 9.5 26.8125C7.79199 26.8125 6.40625 25.4268 6.40625 23.7188C6.40625 22.3717 7.26992 21.2244 8.46875 20.799V13.4062C8.46875 12.8391 8.93281 12.375 9.5 12.375C10.0672 12.375 10.5312 12.8391 10.5312 13.4062V20.799C11.7301 21.2244 12.5938 22.3717 12.5938 23.7188Z" fill="white"/></svg>    